<?xml version="1.0"?>
<svg width="800" height="458" xmlns="http://www.w3.org/2000/svg" xmlns:svg="http://www.w3.org/2000/svg">
 <style type="text/css">.st0{display:none;} .st1{display:inline;} .st2{fill:#FFFFFF;} .st3{fill:none;stroke:#9882CE;stroke-width:4;stroke-miterlimit:10;} .st4{fill:#FFFFFF;stroke:#404040;stroke-width:4;stroke-linejoin:round;stroke-miterlimit:10;} .st5{fill:#4ED1A1;stroke:#404040;stroke-width:4;stroke-linecap:round;stroke-linejoin:round;stroke-miterlimit:10;} .st6{fill:#B3E3FF;stroke:#404040;stroke-width:4;stroke-miterlimit:10;} .st7{fill:#FFFFFF;stroke:#6693ED;stroke-width:4;stroke-miterlimit:10;} .st8{fill:#FFFFFF;stroke:#404040;stroke-width:4;stroke-miterlimit:10;} .st9{fill:#404040;} .st10{fill:#404040;stroke:#404040;stroke-width:4;stroke-linejoin:round;stroke-miterlimit:10;} .st11{fill:none;stroke:#404040;stroke-width:4;stroke-linecap:round;stroke-linejoin:round;stroke-miterlimit:10;} .st12{fill:#999999;} .st13{fill:#B18BE8;stroke:#404040;stroke-width:4;stroke-linecap:round;stroke-linejoin:round;stroke-miterlimit:10;} .st14{fill:none;stroke:#404040;stroke-width:4;stroke-miterlimit:10;} .st15{fill:#4ED1A1;stroke:#404040;stroke-width:4;stroke-miterlimit:10;} .st16{fill:#B3E3FF;stroke:#404040;stroke-width:4;stroke-linejoin:round;stroke-miterlimit:10;} .st17{fill:#FFFFFF;stroke:#404040;stroke-width:4;stroke-linecap:round;stroke-linejoin:round;stroke-miterlimit:10;} .st18{fill:none;stroke:#CCCCCC;stroke-width:4;stroke-linecap:round;stroke-linejoin:round;stroke-miterlimit:10;} .st19{fill:#FFFFFF;stroke:#CCCCCC;stroke-width:4;stroke-linecap:round;stroke-linejoin:round;stroke-miterlimit:10;} .st20{fill:#59AFE1;stroke:#404040;stroke-width:4;stroke-linejoin:round;stroke-miterlimit:10;} .st21{fill:none;stroke:#CCCCCC;stroke-linecap:round;stroke-linejoin:round;stroke-miterlimit:10;}</style>
 <g>
  <title>Layer 1</title>
  <path id="svg_2" d="m330.5,268.5c0,22.600006 -18.399994,41 -41,41m41,-41c0,-22.600006 18.399994,-41 41,-41l215.100037,0" class="st14"/>
  <circle id="svg_3" r="21" cy="227.5" cx="414.9" class="st15"/>
  <circle id="svg_4" r="21" cy="227.5" cx="511.2" class="st15"/>
  <circle id="svg_5" r="21" cy="227.5" cx="607.4" class="st15"/>
  <path id="svg_6" d="m119.5,309.5l170,0" class="st14"/>
  <circle id="svg_7" r="21" cy="309.5" cx="140.5" class="st8"/>
  <circle id="svg_8" r="21" cy="309.5" cx="236.5" class="st8"/>
  <path id="svg_9" d="m272.799988,309.5l216.100006,0" class="st14"/>
  <circle id="svg_10" r="21" cy="309.5" cx="413.9" class="st6"/>
  <circle id="svg_11" r="21" cy="309.5" cx="509.9" class="st16"/>
  <path id="svg_12" d="m557.400024,86.5l100,0l0,50l-100,0l0,-50z" class="st5"/>
  <path id="svg_13" d="m580.599976,117.5l0,-10.599998l6.5,0l0,1.400002l-5,0l0,3.399986l4.5,0l0,1.400002l-4.5,0l0,4.5l-1.5,0l0,-0.099998l0,0.000008zm14.599976,-1.900002c-0.399963,1.300003 -1.599976,2.300003 -3.199951,2.300003c-1.900024,0 -3.600037,-1.400002 -3.600037,-3.900002c0,-2.300003 1.600037,-3.800003 3.400024,-3.800003c2.200012,0 3.5,1.5 3.5,3.800003l0,0.400002l-5.400024,0c0,1.299995 1,2.199997 2.200012,2.199997c1.200012,0 1.799988,-0.599998 2,-1.5l1.099976,0.5zm-1.399963,-2.299995c0,-1 -0.700012,-1.800003 -2,-1.800003c-1.200012,0 -1.900024,0.900002 -2,1.800003l4,0zm5.799988,0.199997l1.900024,-0.300003c0.399963,-0.099998 0.599976,-0.299995 0.599976,-0.5c0,-0.699997 -0.5,-1.299995 -1.599976,-1.299995c-1,0 -1.5,0.599998 -1.600037,1.5l-1.399963,-0.300003c0.199951,-1.400002 1.399963,-2.299995 3,-2.299995c2.199951,0 3,1.199997 3,2.599998l0,3.599998c0,0.599998 0.099976,1 0.099976,1.199997l-1.400024,0c0,-0.199997 -0.099976,-0.5 -0.099976,-1c-0.299988,0.5 -1,1.200005 -2.299988,1.200005c-1.5,0 -2.400024,-1 -2.400024,-2.200005c0,-1.299995 0.900024,-2 2.200012,-2.199997zm2.5,1l0,-0.300003l-2.200012,0.300003c-0.599976,0.099998 -1.099976,0.400002 -1.099976,1.099998c0,0.5 0.399963,1 1.200012,1c1.199951,0.099998 2.099976,-0.5 2.099976,-2.099998zm6.200012,-4.099998l1.599976,0l0,1.299995l-1.599976,0l0,3.800003c0,0.699997 0.299988,1 1,1c0.200012,0 0.399963,0 0.599976,-0.099998l0,1.199997c-0.099976,0 -0.5,0.099998 -1,0.099998c-1.200012,0 -2,-0.799995 -2,-2.099998l0,-4l-1.399963,0l0,-1.299995l0.399963,0c0.799988,0 1.100037,-0.5 1.100037,-1.100014l0,-1.099998l1.299988,0l0,2.299995l0,0.000023l0,-0.000008zm6.799988,7.400002c-1.700012,0 -2.700012,-1.300003 -2.700012,-2.900002l0,-4.5l1.400024,0l0,4.299995c0,1 0.399963,1.900002 1.599976,1.900002c1.100037,0 1.700012,-0.799995 1.700012,-1.799995l0,-4.400002l1.400024,0l0,5.900002c0,0.599998 0,1.099998 0.099976,1.299995l-1.400024,0c0,-0.199997 -0.099976,-0.599998 -0.099976,-0.900002c-0.200012,0.800003 -1.099976,1.100014 -2,1.100014l0,-0.000008zm10.700012,-6l-0.600037,0c-1.199951,0 -2,0.599998 -2,2.199997l0,3.599998l-1.399963,0l0,-7.199997l1.399963,0l0,1.299995c0.5,-1.099998 1.400024,-1.399986 2.200012,-1.399986l0.5,0l0,1.5l-0.099976,0l0,-0.000008zm8.399963,3.799995c-0.399963,1.300003 -1.599976,2.300003 -3.199951,2.300003c-1.900024,0 -3.600037,-1.400002 -3.600037,-3.900002c0,-2.300003 1.600037,-3.800003 3.400024,-3.800003c2.200012,0 3.5,1.5 3.5,3.800003l0,0.400002l-5.400024,0c0,1.299995 1,2.199997 2.200012,2.199997c1.200012,0 1.799988,-0.599998 2,-1.5l1.099976,0.5zm-1.399963,-2.299995c0,-1 -0.700012,-1.800003 -2,-1.800003c-1.200012,0 -1.900024,0.900002 -2,1.800003l4,0z" class="st9"/>
  <path id="svg_14" d="m607.400024,182.300003l0,-23.5m10.900024,14.800003l-10.900024,10.899979l-10.799988,-10.899979" class="st11"/>
  <path id="svg_15" d="m459.899994,401.5l99.999969,0l0,50l-99.999969,0l0,-50z" class="st16"/>
  <path id="svg_16" d="m495.200012,432.5l0,-8.299988l-3.600006,8.299988l-1.299988,0l-3.600006,-8.299988l0,8.299988l-1.5,0l0,-10.600006l2,0l3.700012,8.700012l3.799988,-8.700012l2,0l0,10.600006l-1.5,0zm6.399994,-4.200012l1.899994,-0.299988c0.400024,-0.100006 0.600006,-0.299988 0.600006,-0.5c0,-0.700012 -0.5,-1.299988 -1.600006,-1.299988c-1,0 -1.5,0.599976 -1.599976,1.5l-1.400024,-0.300018c0.200012,-1.399994 1.400024,-2.299988 3,-2.299988c2.200012,0 3,1.199982 3,2.600006l0,3.599976c0,0.600006 0.100006,1 0.100006,1.200012l-1.399994,0c0,-0.200012 -0.100006,-0.5 -0.100006,-1c-0.299988,0.5 -1,1.200012 -2.299988,1.200012c-1.5,0 -2.399994,-1 -2.399994,-2.200012c0.099976,-1.299988 1,-2 2.199982,-2.200012zm2.5,1.100006l0,-0.399994l-2.199982,0.299988c-0.600006,0.100067 -1.100006,0.400024 -1.100006,1.100067c0,0.5 0.399994,1 1.199982,1c1.200012,0.100006 2.100006,-0.5 2.100006,-2l0,-0.000031l0,-0.000031zm5,0.700012c0.100006,0.799988 0.700012,1.299988 1.700012,1.299988c0.799988,0 1.199982,-0.399994 1.199982,-1c0,-0.399994 -0.299988,-0.799988 -0.899994,-0.899994l-1.199982,-0.299988c-1.100006,-0.200012 -1.800018,-1 -1.800018,-2c0,-1.200012 1.200012,-2.300018 2.600006,-2.300018c2,0 2.599976,1.300018 2.700012,1.899994l-1.200012,0.5c-0.099976,-0.399994 -0.399994,-1.199982 -1.5,-1.199982c-0.700012,0 -1.200012,0.5 -1.200012,1c0,0.399994 0.300018,0.799988 0.800018,0.899994l1.199982,0.299988c1.299988,0.300018 2,1.100006 2,2.100006s-0.899963,2.200012 -2.599976,2.200012c-2,0 -2.800018,-1.300018 -2.900024,-2.100006l1.100006,-0.399994zm8.800018,-4.899994l1.599976,0l0,1.299988l-1.599976,0l0,3.799988c0,0.700012 0.299988,1 1,1c0.200012,0 0.399963,0 0.599976,-0.099976l0,1.199982c-0.099976,0 -0.5,0.100006 -1,0.100006c-1.200012,0 -2,-0.799988 -2,-2.100006l0,-4l-1.399963,0l0,-1.299988l0.399963,0c0.799988,0 1.100037,-0.5 1.100037,-1.100006l0,-1l1.299988,0l0,2.200012zm10.399963,5.199982c-0.399963,1.300018 -1.599976,2.300018 -3.199951,2.300018c-1.900024,0 -3.600037,-1.400024 -3.600037,-3.900024c0,-2.299988 1.600037,-3.799988 3.400024,-3.799988c2.200012,0 3.5,1.5 3.5,3.799988l0,0.400024l-5.400024,0c0,1.299988 1,2.199982 2.200012,2.199982c1.200012,0 1.799988,-0.600006 2,-1.5l1.099976,0.5zm-1.399963,-2.299988c0,-1 -0.700012,-1.800018 -2,-1.800018c-1.200012,0 -1.900024,0.900024 -2,1.800018l4,0zm8,-1.399994l-0.600037,0c-1.199951,0 -2,0.599976 -2,2.199982l0,3.600006l-1.399963,0l0,-7.200012l1.399963,0l0,1.300018c0.5,-1.100006 1.400024,-1.399933 2.200012,-1.399933l0.5,0l0,1.5l-0.099976,0l0,-0.000031l0,-0.000031z" class="st9"/>
  <path id="svg_17" d="m509.899994,354.899994l0,23.5m-10.899994,-14.800018l10.899994,-10.799988l10.899994,10.799988" class="st11"/>
 </g>
</svg>