<?xml version="1.0"?>
<svg width="800" height="536" xmlns="http://www.w3.org/2000/svg" xmlns:svg="http://www.w3.org/2000/svg">
 <style type="text/css">.st0{display:none;} .st1{display:inline;} .st2{fill:#FFFFFF;} .st3{fill:none;stroke:#9882CE;stroke-width:4;stroke-miterlimit:10;} .st4{fill:#FFFFFF;stroke:#404040;stroke-width:4;stroke-linejoin:round;stroke-miterlimit:10;} .st5{fill:#4ED1A1;stroke:#404040;stroke-width:4;stroke-linecap:round;stroke-linejoin:round;stroke-miterlimit:10;} .st6{fill:#B3E3FF;stroke:#404040;stroke-width:4;stroke-miterlimit:10;} .st7{fill:#FFFFFF;stroke:#6693ED;stroke-width:4;stroke-miterlimit:10;} .st8{fill:#FFFFFF;stroke:#404040;stroke-width:4;stroke-miterlimit:10;} .st9{fill:#404040;} .st10{fill:#404040;stroke:#404040;stroke-width:4;stroke-linejoin:round;stroke-miterlimit:10;} .st11{fill:none;stroke:#404040;stroke-width:4;stroke-linecap:round;stroke-linejoin:round;stroke-miterlimit:10;} .st12{fill:#999999;} .st13{fill:#B18BE8;stroke:#404040;stroke-width:4;stroke-linecap:round;stroke-linejoin:round;stroke-miterlimit:10;} .st14{fill:none;stroke:#404040;stroke-width:4;stroke-miterlimit:10;} .st15{fill:#4ED1A1;stroke:#404040;stroke-width:4;stroke-miterlimit:10;} .st16{fill:#B3E3FF;stroke:#404040;stroke-width:4;stroke-linejoin:round;stroke-miterlimit:10;} .st17{fill:#FFFFFF;stroke:#404040;stroke-width:4;stroke-linecap:round;stroke-linejoin:round;stroke-miterlimit:10;} .st18{fill:none;stroke:#CCCCCC;stroke-width:4;stroke-linecap:round;stroke-linejoin:round;stroke-miterlimit:10;} .st19{fill:#FFFFFF;stroke:#CCCCCC;stroke-width:4;stroke-linecap:round;stroke-linejoin:round;stroke-miterlimit:10;} .st20{fill:#59AFE1;stroke:#404040;stroke-width:4;stroke-linejoin:round;stroke-miterlimit:10;} .st21{fill:none;stroke:#CCCCCC;stroke-linecap:round;stroke-linejoin:round;stroke-miterlimit:10;}</style>
 <g>
  <title>Layer 1</title>
  <path id="svg_2" d="m373.100006,525.900024l0,-8.299988l-3.600006,8.299988l-1.299988,0l-3.600006,-8.299988l0,8.299988l-1.600006,0l0,-10.599976l2,0l3.700012,8.699951l3.799988,-8.699951l2,0l0,10.599976l-1.399994,0zm11,-2c-0.399994,1.299988 -1.600006,2.299988 -3.200012,2.299988c-1.899994,0 -3.599976,-1.399963 -3.599976,-3.899963c0,-2.300049 1.599976,-3.800049 3.399994,-3.800049c2.199982,0 3.5,1.5 3.5,3.800049l0,0.399963l-5.399994,0c0,1.299988 1,2.200012 2.199982,2.200012c1.200012,0 1.800018,-0.599976 2,-1.5l1.100006,0.5zm-1.399994,-2.299988c0,-1 -0.700012,-1.799988 -2,-1.799988c-1.200012,0 -1.899994,0.899963 -2,1.799988l4,0zm8,-1.400024l-0.600006,0c-1.200012,0 -2,0.600037 -2,2.200012l0,3.599976l-1.399994,0l0,-7.199951l1.399994,0l0,1.299988c0.5,-1.100037 1.399994,-1.400024 2.200012,-1.400024l0.5,0l0,1.5l-0.100006,0zm3,5.799988c0.100006,1 0.899994,1.800049 2,1.800049c1.5,0 2.199982,-0.800049 2.199982,-2.300049l0,-1c-0.299988,0.700012 -1.099976,1.200012 -2.199982,1.200012c-1.899994,0 -3.300018,-1.5 -3.300018,-3.5c0,-1.899963 1.300018,-3.5 3.300018,-3.5c1.100006,0 1.899994,0.400024 2.199982,1.100037l0,-1l1.400024,0l0,6.699951c0,1.800049 -0.900024,3.600037 -3.600006,3.600037c-1.800018,0 -3.100006,-1.100037 -3.300018,-2.700012l1.300018,-0.400024zm4.299988,-3.899963c0,-1.400024 -0.799988,-2.299988 -2.100006,-2.299988c-1.199982,0 -2.099976,0.899963 -2.099976,2.299988s0.799988,2.299988 2.099976,2.299988c1.200012,0 2.100006,-0.900024 2.100006,-2.299988zm10.600006,1.799988c-0.399994,1.299988 -1.600006,2.299988 -3.200012,2.299988c-1.899994,0 -3.599976,-1.399963 -3.599976,-3.899963c0,-2.300049 1.599976,-3.800049 3.399994,-3.800049c2.199982,0 3.5,1.5 3.5,3.800049l0,0.399963l-5.399994,0c0,1.299988 1,2.200012 2.199982,2.200012c1.200012,0 1.800018,-0.599976 2,-1.5l1.100006,0.5zm-1.399994,-2.299988c0,-1 -0.700012,-1.799988 -2,-1.799988c-1.200012,0 -1.899994,0.899963 -2,1.799988l4,0zm8,-1c0,-3.600037 2.600006,-5.5 5.299988,-5.5c2.399994,0 4.100006,1.299988 4.700012,3.399963l-1.399994,0.5c-0.400024,-1.599976 -1.600006,-2.5 -3.300018,-2.5c-1.899994,0 -3.799988,1.400024 -3.799988,4.200012s1.799988,4.200012 3.799988,4.200012c1.800018,0 3,-1.099976 3.399994,-2.5l1.300018,0.5c-0.600006,2 -2.200012,3.400024 -4.700012,3.400024c-2.799988,-0.100037 -5.299988,-2.100037 -5.299988,-5.700012zm19,1.700012c0,2.199951 -1.5,3.799988 -3.700012,3.799988s-3.699982,-1.600037 -3.699982,-3.799988c0,-2.200012 1.5,-3.800049 3.699982,-3.800049s3.700012,1.600037 3.700012,3.800049zm-1.5,0c0,-1.700012 -1.100006,-2.600037 -2.200012,-2.600037s-2.199982,0.900024 -2.199982,2.600037c0,1.699951 1.099976,2.599976 2.199982,2.599976s2.200012,-0.900024 2.200012,-2.599976zm4,3.599976l0,-7.200012l1.299988,0l0,1c0.5,-0.799988 1.399994,-1.200012 2.200012,-1.200012c0.899994,0 1.799988,0.400024 2.199982,1.400024c0.600006,-1 1.5,-1.400024 2.400024,-1.400024c1.299988,0 2.5,0.900024 2.5,2.700012l0,4.700012l-1.400024,0l0,-4.5c0,-0.900024 -0.5,-1.599976 -1.5,-1.599976s-1.699982,0.799988 -1.699982,1.799988l0,4.399963l-1.399994,0l0,-4.5c0,-0.899963 -0.400024,-1.599976 -1.5,-1.599976c-1,0 -1.700012,0.799988 -1.700012,1.799988l0,4.299988l-1.399994,0l0,-0.099976zm13.600006,0l0,-7.200012l1.299988,0l0,1c0.5,-0.799988 1.399994,-1.200012 2.200012,-1.200012c0.899994,0 1.799988,0.400024 2.199982,1.400024c0.600006,-1 1.5,-1.400024 2.399994,-1.400024c1.300018,0 2.5,0.900024 2.5,2.700012l0,4.700012l-1.399994,0l0,-4.5c0,-0.900024 -0.5,-1.599976 -1.5,-1.599976s-1.699982,0.799988 -1.699982,1.799988l0,4.399963l-1.400024,0l0,-4.5c0,-0.899963 -0.399994,-1.599976 -1.5,-1.599976c-1,0 -1.699982,0.799988 -1.699982,1.799988l0,4.299988l-1.399994,0l0,-0.099976zm14.299988,-10.900024c0.600006,0 1,0.400024 1,1s-0.399994,1 -1,1s-1,-0.5 -1,-1c0,-0.599976 0.5,-1 1,-1zm-0.700012,10.900024l0,-7.200012l1.400024,0l0,7.200012l-1.400024,0zm6.5,-7.200012l1.600006,0l0,1.299988l-1.600006,0l0,3.800049c0,0.699951 0.300018,1 1,1c0.200012,0 0.400024,0 0.600006,-0.100037l0,1.200012c-0.100006,0 -0.5,0.099976 -1,0.099976c-1.199982,0 -2,-0.799988 -2,-2.099976l0,-4l-1.399994,0l0,-1.299988l0.399994,0c0.800018,0 1.100006,-0.5 1.100006,-1.100037l0,-1.199951l1.299988,0l0,2.399963z" class="st9"/>
  <path id="svg_3" d="m331.100006,520.400024l13,0m-11.100006,-4.5l9.200012,9.099976m0,-9.099976l-9.200012,9.099976m4.600006,-11.099976l0,13" class="st17"/>
  <path id="svg_4" d="m293.899994,268.5c0,22.600006 -18.399994,41 -41,41m41,-41c0,-22.600006 18.399994,-41 41,-41l311.199982,0" class="st14"/>
  <circle id="svg_5" r="21" cy="227.5" cx="378.3" class="st15"/>
  <circle id="svg_6" r="21" cy="227.5" cx="474.5" class="st15"/>
  <circle id="svg_7" r="21" cy="227.5" cx="570.8" class="st15"/>
  <circle id="svg_8" r="21" cy="227.5" cx="667.1" class="st15"/>
  <path id="svg_9" d="m82.900002,309.5l170.000008,0" class="st14"/>
  <circle id="svg_10" r="21" cy="309.5" cx="103.9" class="st8"/>
  <circle id="svg_11" r="21" cy="309.5" cx="199.9" class="st8"/>
  <path id="svg_12" d="m236.199997,309.5l216.099991,0" class="st14"/>
  <circle id="svg_13" r="21" cy="309.5" cx="377.3" class="st6"/>
  <circle id="svg_14" r="21" cy="309.5" cx="473.3" class="st16"/>
  <path id="svg_15" d="m617.099976,86.5l100,0l0,50l-100,0l0,-50z" class="st5"/>
  <path id="svg_16" d="m640.299988,117.5l0,-10.599998l6.5,0l0,1.400002l-5,0l0,3.399994l4.5,0l0,1.400002l-4.5,0l0,4.5l-1.5,0l0,-0.099998zm14.599976,-2c-0.399963,1.300003 -1.599976,2.300003 -3.199951,2.300003c-1.900024,0 -3.600037,-1.400002 -3.600037,-3.900002c0,-2.300003 1.600037,-3.800003 3.400024,-3.800003c2.200012,0 3.5,1.5 3.5,3.800003l0,0.400002l-5.400024,0c0,1.299995 1,2.199997 2.200012,2.199997c1.200012,0 1.799988,-0.599998 2,-1.5l1.099976,0.5zm-1.399963,-2.300003c0,-1 -0.700012,-1.799995 -2,-1.799995c-1.200012,0 -1.900024,0.900002 -2,1.799995l4,0zm5.799988,0.300003l1.900024,-0.300003c0.399963,-0.099998 0.599976,-0.299995 0.599976,-0.5c0,-0.699997 -0.5,-1.299995 -1.599976,-1.299995c-1,0 -1.5,0.599998 -1.600037,1.5l-1.399963,-0.300003c0.199951,-1.400002 1.399963,-2.299995 3,-2.299995c2.199951,0 3,1.199997 3,2.599998l0,3.599998c0,0.599998 0.099976,1 0.099976,1.199997l-1.400024,0c0,-0.199997 -0.099976,-0.5 -0.099976,-1c-0.299988,0.5 -1,1.200005 -2.299988,1.200005c-1.5,0 -2.400024,-1 -2.400024,-2.200005c0,-1.299995 0.900024,-2.099998 2.200012,-2.199997zm2.5,1l0,-0.300003l-2.200012,0.300003c-0.599976,0.099998 -1.099976,0.400002 -1.099976,1.099998c0,0.5 0.399963,1 1.200012,1c1.099976,0 2.099976,-0.5 2.099976,-2.099998zm6.200012,-4.099998l1.599976,0l0,1.299995l-1.599976,0l0,3.800003c0,0.699997 0.299988,1 1,1c0.200012,0 0.399963,0 0.599976,-0.099998l0,1.199997c-0.099976,0 -0.5,0.099998 -1,0.099998c-1.200012,0 -2,-0.799995 -2,-2.099998l0,-4l-1.399963,0l0,-1.299995l0.399963,0c0.799988,0 1.100037,-0.5 1.100037,-1.100006l0,-1.099998l1.299988,0l0,2.300003zm6.799988,7.400002c-1.700012,0 -2.700012,-1.300003 -2.700012,-2.900002l0,-4.5l1.400024,0l0,4.299995c0,1 0.399963,1.900002 1.599976,1.900002c1.100037,0 1.700012,-0.799995 1.700012,-1.799995l0,-4.400002l1.400024,0l0,5.900002c0,0.599998 0,1.099998 0.099976,1.299995l-1.299988,0c0,-0.199997 -0.100037,-0.599998 -0.100037,-0.900002c-0.399963,0.800003 -1.299988,1.100006 -2.099976,1.100006zm10.599976,-6l-0.599976,0c-1.200012,0 -2,0.599998 -2,2.199997l0,3.599998l-1.400024,0l0,-7.199997l1.400024,0l0,1.299995c0.5,-1.099998 1.400024,-1.399994 2.200012,-1.399994l0.5,0l0,1.5l-0.100037,0zm8.5,3.699997c-0.399963,1.300003 -1.599976,2.300003 -3.199951,2.300003c-1.900024,0 -3.600037,-1.400002 -3.600037,-3.900002c0,-2.300003 1.600037,-3.800003 3.400024,-3.800003c2.200012,0 3.5,1.5 3.5,3.800003l0,0.400002l-5.400024,0c0,1.299995 1,2.199997 2.200012,2.199997c1.200012,0 1.799988,-0.599998 2,-1.5l1.099976,0.5zm-1.399963,-2.300003c0,-1 -0.700012,-1.799995 -2,-1.799995c-1.200012,0 -1.900024,0.900002 -2,1.799995l4,0z" class="st9"/>
  <path id="svg_17" d="m667.099976,182.300003l0,-23.5m10.900024,14.800003l-10.900024,10.899994l-10.900024,-10.899994" class="st11"/>
  <path id="svg_18" d="m423.299988,401.399994l100,0l0,50l-100,0l0,-50z" class="st16"/>
  <path id="svg_19" d="m458.600006,432.399994l0,-8.299988l-3.600006,8.299988l-1.299988,0l-3.600006,-8.299988l0,8.299988l-1.5,0l0,-10.600006l2,0l3.700012,8.700012l3.799988,-8.700012l2,0l0,10.600006l-1.5,0zm6.399994,-4.100006l1.899994,-0.299988c0.400024,-0.100006 0.600006,-0.300018 0.600006,-0.5c0,-0.700012 -0.5,-1.300018 -1.600006,-1.300018c-1,0 -1.5,0.600006 -1.599976,1.5l-1.400024,-0.299988c0.200012,-1.399994 1.400024,-2.299988 3,-2.299988c2.200012,0 3,1.199982 3,2.599976l0,3.600006c0,0.600006 0.100006,1 0.100006,1.200012l-1.399994,0c0,-0.200012 -0.100006,-0.5 -0.100006,-1c-0.299988,0.5 -1,1.199982 -2.299988,1.199982c-1.5,0 -2.399994,-1 -2.399994,-2.199982c0,-1.300018 1,-2 2.199982,-2.200012zm2.5,1l0,-0.299988l-2.199982,0.299988c-0.600006,0.100006 -1.100006,0.399994 -1.100006,1.100006c0,0.5 0.399994,1 1.199982,1c1.200012,0.100006 2.100006,-0.5 2.100006,-2.100006zm5,0.800018c0.100006,0.799988 0.700012,1.299988 1.700012,1.299988c0.799988,0 1.199982,-0.399994 1.199982,-1c0,-0.399994 -0.299988,-0.799988 -0.899994,-0.899994l-1.199982,-0.300018c-1.100006,-0.199982 -1.800018,-1 -1.800018,-2c0,-1.199982 1.200012,-2.299988 2.600006,-2.299988c2,0 2.600006,1.299988 2.700012,1.899994l-1.200012,0.5c-0.100006,-0.399994 -0.399994,-1.199982 -1.5,-1.199982c-0.700012,0 -1.200012,0.5 -1.200012,1c0,0.399994 0.300018,0.799988 0.800018,0.899994l1.199982,0.299988c1.300018,0.300018 2,1.100006 2,2.100006s-0.899994,2.200012 -2.599976,2.200012c-2,0 -2.800018,-1.300018 -2.900024,-2.100006l1.100006,-0.399994zm8.800018,-4.900024l1.599976,0l0,1.300018l-1.599976,0l0,3.799988c0,0.700012 0.299988,1 1,1c0.199982,0 0.399994,0 0.599976,-0.100006l0,1.200012c-0.099976,0 -0.5,0.100006 -1,0.100006c-1.199982,0 -2,-0.800018 -2,-2.100006l0,-4l-1.399994,0l0,-1.299988l0.399994,0c0.800018,0 1.100006,-0.5 1.100006,-1.100006l0,-1.200012l1.300018,0l0,2.399994zm10.399994,5.200012c-0.399994,1.299988 -1.600006,2.299988 -3.200012,2.299988c-1.899994,0 -3.600006,-1.399994 -3.600006,-3.899994c0,-2.299988 1.600006,-3.799988 3.400024,-3.799988c2.199982,0 3.5,1.5 3.5,3.799988l0,0.399994l-5.400024,0c0,1.300018 1,2.200012 2.200012,2.200012c1.200012,0 1.799988,-0.600006 2,-1.5l1.100006,0.5zm-1.399994,-2.299988c0,-1 -0.700012,-1.800018 -2,-1.800018c-1.200012,0 -1.900024,0.899994 -2,1.800018l4,0zm8,-1.5l-0.600006,0c-1.200012,0 -2,0.599976 -2,2.199982l0,3.600006l-1.399994,0l0,-7.200012l1.399994,0l0,1.300018c0.5,-1.100006 1.399994,-1.399994 2.199982,-1.399994l0.5,0l0,1.5l-0.099976,0z" class="st9"/>
  <path id="svg_20" d="m473.299988,354.899994l0,23.5m-10.899994,-14.799988l10.899994,-10.900024l10.899994,10.900024m140.100006,-104.5l15.400024,0l0,15.299988m-122.600037,35.100006c46.300049,0 88.400024,-18.100006 119.600037,-47.700012" class="st11"/>
  <path id="svg_21" d="m660.599976,227.5l13,0m-11.099976,-4.600006l9.199951,9.200012m0,-9.200012l-9.199951,9.200012m4.599976,-11.100006l0,13" class="st17"/>
 </g>
</svg>